<svg xmlns="http://www.w3.org/2000/svg" version="1.1" viewBox="138.8544 664.7808 774.144 153.6" style="max-height: 500px" width="774.144" height="153.6">

<path style="opacity: 1;" data-index="1" transform="translate(589.66796875,189.28125)" fill="#18304D" d="M0 0 C16.1550624 11.90657865 26.37405344 27.10544996 29.90234375 46.921875 C30.42317884 51.52416323 30.44026452 56.03015372 30.39453125 60.65625 C30.39001953 61.53087891 30.38550781 62.40550781 30.38085938 63.30664062 C30.36917959 65.44404047 30.35124814 67.58140463 30.33203125 69.71875 C31.37657471 69.70303955 32.42111816 69.6873291 33.49731445 69.67114258 C37.37174777 69.61685303 41.24614744 69.5824037 45.12084961 69.55395508 C46.79799045 69.53886616 48.47509182 69.51839252 50.15209961 69.49243164 C52.56243629 69.45605189 54.97225144 69.43902514 57.3828125 69.42578125 C58.13291092 69.41029739 58.88300934 69.39481354 59.65583801 69.37886047 C64.79762943 69.37719724 64.79762943 69.37719724 67.26489258 70.95410156 C68.56149129 73.09819113 68.97014569 74.76493556 69.35546875 77.24609375 C69.51112305 78.22562012 69.66677734 79.20514648 69.82714844 80.21435547 C70.07706543 81.94903076 70.07706543 81.94903076 70.33203125 83.71875 C70.43132935 84.38948547 70.53062744 85.06022095 70.63293457 85.75128174 C71.32544366 90.43262738 71.98193092 95.11819901 72.61914062 99.80737305 C72.95696213 102.28074393 73.30455608 104.75262278 73.65234375 107.22460938 C73.87169592 108.82804274 74.09046564 110.43155591 74.30859375 112.03515625 C74.41168854 112.75836563 74.51478333 113.48157501 74.6210022 114.22669983 C75.35401491 119.74108537 75.43828448 125.16037216 75.33203125 130.71875 C76.02392548 130.70986755 76.7158197 130.70098511 77.42868042 130.6918335 C83.98888568 130.61127087 90.54895039 130.55057597 97.10954094 130.51150131 C100.48144727 130.49073624 103.85294063 130.46262611 107.22460938 130.41699219 C111.11208778 130.36818337 114.9989886 130.34571357 118.88671875 130.328125 C120.6795076 130.29715729 120.6795076 130.29715729 122.5085144 130.26556396 C130.41994524 130.26346806 138.15254035 130.94702233 144.271698 136.46917725 C150.02361997 142.68830436 150.74409938 148.5778205 150.612854 156.86499023 C150.14572456 163.27545603 148.56526741 169.31810708 146.88671875 175.5 C146.51966996 176.90262105 146.1541728 178.30564892 145.7901001 179.70904541 C144.8163875 183.44565966 143.82225463 187.17654188 142.82376862 190.90660095 C141.78573394 194.79819407 140.76639858 198.69467606 139.74560547 202.59082031 C138.29242778 208.13136429 136.83342458 213.67030956 135.36709023 219.20738602 C133.0885095 227.81461037 130.85114357 236.43147592 128.65116501 245.05911255 C127.85394832 248.18502697 127.05387892 251.3102118 126.25439453 254.43554688 C125.3640447 257.9167807 124.47491801 261.39829182 123.59075928 264.88110352 C122.78430755 268.05261257 121.96935623 271.22182269 121.15234375 274.390625 C120.92387756 275.29798401 120.69541138 276.20534302 120.46002197 277.14019775 C118.29327486 285.484596 115.95613781 293.74667825 109.95703125 300.15625 C108.86261719 301.36087891 108.86261719 301.36087891 107.74609375 302.58984375 C102.21835543 307.46462916 96.43272565 308.84493974 89.23460674 308.84179783 C87.72007208 308.8447844 87.72007208 308.8447844 86.17494076 308.84783131 C84.52173383 308.84346205 84.52173383 308.84346205 82.83512878 308.83900452 C81.65887713 308.83985894 80.48262548 308.84071337 79.27072984 308.84159368 C76.0097601 308.84295579 72.74883013 308.83983128 69.48786509 308.83481562 C65.96985604 308.8304967 62.45184884 308.83195857 58.93383789 308.8327179 C52.83993783 308.83324221 46.74604848 308.83010501 40.65215111 308.82448006 C31.84140169 308.81635262 23.03065746 308.81374856 14.2199047 308.81249207 C-0.07499811 308.81030351 -14.36989521 308.80364872 -28.66479492 308.79418945 C-42.55086234 308.78501028 -56.43692821 308.77793191 -70.32299805 308.77368164 C-71.60692922 308.77328756 -71.60692922 308.77328756 -72.91679839 308.77288551 C-77.21087366 308.77158047 -81.50494894 308.77031676 -85.79902422 308.76907361 C-121.4220098 308.75870709 -157.04498875 308.74109409 -192.66796875 308.71875 C-191.65555314 312.24865758 -190.60286468 315.76533471 -189.54296875 319.28125 C-189.11757813 320.7672168 -189.11757813 320.7672168 -188.68359375 322.28320312 C-186.49212521 329.4531165 -183.90868768 334.99861763 -177.45205593 339.14010715 C-173.01704302 340.06187732 -168.64021958 339.99493723 -164.12257385 339.97703552 C-162.51155435 339.98254908 -162.51155435 339.98254908 -160.867989 339.98817402 C-157.26293743 339.99816794 -153.65803969 339.9940004 -150.05297852 339.98999023 C-147.47087439 339.99437644 -144.88877167 339.99967821 -142.30667114 340.00582886 C-136.74316947 340.01786923 -131.17969642 340.02298154 -125.61618233 340.02371025 C-117.56575109 340.02503631 -109.51538933 340.0401515 -101.46498262 340.05920542 C-88.39487656 340.09004322 -75.32476875 340.11421069 -62.25463867 340.13208008 C-61.47250836 340.13315276 -60.69037804 340.13422544 -59.88454681 340.13533062 C-51.15814018 340.14715121 -42.43173284 340.15735675 -33.70532227 340.16577148 C-30.54077147 340.16884543 -27.37622068 340.17193422 -24.21166992 340.17504883 C-23.04035922 340.17619684 -23.04035922 340.17619684 -21.84538568 340.17736804 C-8.82516635 340.19044935 4.19500267 340.21508787 17.21518475 340.24879223 C25.24528405 340.26908166 33.27527573 340.27937171 41.30540086 340.27680302 C47.45741043 340.27564568 53.60929665 340.28979282 59.76127243 340.30961227 C62.28562751 340.31522189 64.80999997 340.31568777 67.33435631 340.31067467 C70.77631513 340.30455509 74.21774039 340.31672623 77.65965271 340.33348083 C78.66208446 340.32726902 79.66451622 340.3210572 80.69732469 340.31465715 C87.66524957 340.37660148 91.92859715 341.52431017 97.20703125 346.34375 C99.92188779 350.65558097 100.30253779 353.75046881 99.33203125 358.71875 C97.29753459 362.64242212 95.14853197 365.4527027 91.33203125 367.71875 C88.42089054 368.61451811 85.80114091 368.84539314 82.7631979 368.85017776 C81.84588436 368.85401891 80.92857081 368.85786005 79.98345989 368.8618176 C78.47721281 368.86051787 78.47721281 368.86051787 76.9405365 368.85919189 C75.87090575 368.86216302 74.80127501 368.86513414 73.69923121 368.8681953 C70.10278365 368.87689051 66.50636935 368.87839126 62.90991211 368.87988281 C60.33606902 368.88451048 57.76222661 368.88953506 55.18838501 368.89492798 C48.18604223 368.90850641 41.18370518 368.91453564 34.18135142 368.91893864 C29.80655913 368.92170266 25.43176903 368.92594039 21.05697823 368.93044281 C8.93819155 368.9426363 -3.18059335 368.95293451 -15.29938602 368.9563179 C-16.46274716 368.95664725 -16.46274716 368.95664725 -17.64961055 368.95698325 C-18.42701941 368.95720153 -19.20442828 368.95741981 -20.005395 368.9576447 C-21.58066372 368.95808816 -23.15593245 368.95853473 -24.73120117 368.95898438 C-25.51258544 368.9592058 -26.2939697 368.95942723 -27.09903228 368.95965537 C-39.74959896 368.9636002 -52.40010793 368.9810442 -65.05065233 369.0043439 C-78.047107 369.02808684 -91.04353274 369.04052114 -104.04000944 369.04168582 C-111.33359541 369.04260108 -118.62710624 369.04831561 -125.92067146 369.06650543 C-132.78495019 369.08356447 -139.64908439 369.08513703 -146.51337814 369.07636642 C-149.02919204 369.07559649 -151.54501362 369.07993292 -154.06080818 369.08982468 C-157.50323696 369.10256302 -160.94516277 369.09665657 -164.3875885 369.08624268 C-165.37613817 369.09429908 -166.36468783 369.10235548 -167.38319355 369.11065602 C-181.95558363 369.0080127 -193.83448934 363.9820346 -204.24609375 353.90234375 C-211.53255568 345.18964099 -214.42897373 333.82247226 -217.35546875 323.09375 C-217.78424775 321.55678065 -218.21371096 320.02000204 -218.64379883 318.48339844 C-222.31806111 305.28146205 -225.76904015 292.01930169 -229.20751953 278.75439453 C-233.09157028 263.7916561 -237.14520066 248.87766944 -241.23046875 233.96875 C-245.36278713 218.88222614 -249.47383261 203.79312231 -253.41796875 188.65625 C-257.94530212 171.30256576 -262.61394583 153.98704556 -267.29870605 136.67532349 C-268.16561355 133.47159093 -269.030701 130.26737593 -269.89416504 127.06271362 C-270.92116751 123.25170619 -271.95213584 119.44179273 -272.98604774 115.63265419 C-273.37082524 114.21272333 -273.75431069 112.79244162 -274.13640404 111.37178612 C-276.72227104 97.82290065 -276.72227104 97.82290065 -284.66796875 87.71875 C-287.23823612 87.27674243 -287.23823612 87.27674243 -290.05981445 87.34985352 C-291.67718254 87.33952843 -291.67718254 87.33952843 -293.32722473 87.32899475 C-294.48767807 87.33515305 -295.64813141 87.34131134 -296.84375 87.34765625 C-299.30533991 87.33027137 -301.76692843 87.31268701 -304.22851562 87.29492188 C-308.10606497 87.28485415 -311.98352212 87.28125134 -315.86108398 87.28295898 C-319.60558509 87.2793844 -323.34937552 87.2520194 -327.09375 87.22265625 C-328.82532097 87.23493004 -328.82532097 87.23493004 -330.59187317 87.24745178 C-337.17875929 87.18667865 -341.31694253 86.66464394 -346.66796875 82.71875 C-349.59491038 79.57173757 -350.58633299 76.38349837 -351.10546875 72.15625 C-350.44816636 66.99173119 -348.98018825 63.90294809 -345.10546875 60.40625 C-341.50691385 57.91494276 -339.64137897 57.58488451 -335.29125977 57.54174805 C-333.60293785 57.52249519 -333.60293785 57.52249519 -331.88050842 57.50285339 C-330.65665939 57.49546646 -329.43281036 57.48807953 -328.171875 57.48046875 C-326.9134227 57.472397 -325.6549704 57.46432526 -324.35838318 57.45600891 C-321.68590607 57.44215171 -319.01355294 57.43114236 -316.34106445 57.42358398 C-312.945266 57.412595 -309.55013662 57.37828991 -306.15457249 57.33841228 C-302.88957413 57.30568044 -299.62451237 57.30144201 -296.359375 57.29296875 C-294.55092857 57.26670662 -294.55092857 57.26670662 -292.70594788 57.23991394 C-281.49281643 57.26834299 -271.23113704 60.1935415 -262.66796875 67.71875 C-252.9661986 78.67236146 -249.55787936 92.87246501 -246.01831055 106.69458008 C-245.3480827 109.31007329 -244.66432771 111.92175739 -243.97851562 114.53320312 C-243.54479325 116.20031819 -243.11182221 117.86762894 -242.6796875 119.53515625 C-242.47663498 120.31323135 -242.27358246 121.09130646 -242.06437683 121.89295959 C-241.29431835 124.91275589 -240.66796875 127.58875694 -240.66796875 130.71875 C-208.65796875 130.71875 -176.64796875 130.71875 -143.66796875 130.71875 C-143.33796875 125.10875 -143.00796875 119.49875 -142.66796875 113.71875 C-142.35378326 110.36683538 -142.02536784 107.04148989 -141.6171875 103.703125 C-141.51710892 102.87339172 -141.41703033 102.04365845 -141.31391907 101.18878174 C-141.10435857 99.47492284 -140.8917567 97.76143293 -140.67602539 96.04833984 C-140.35078091 93.43102593 -140.04951191 90.81155278 -139.74804688 88.19140625 C-139.53921869 86.507631 -139.32898565 84.82402925 -139.1171875 83.140625 C-139.0316008 82.36668396 -138.9460141 81.59274292 -138.85783386 80.79534912 C-138.22471634 76.03873149 -137.41863439 72.83475185 -133.66796875 69.71875 C-130.77951734 69.27163618 -128.49519808 69.13090281 -125.62109375 69.23046875 C-124.46429108 69.24108086 -124.46429108 69.24108086 -123.28411865 69.25190735 C-120.82773663 69.27983422 -118.37365824 69.34256261 -115.91796875 69.40625 C-114.25003299 69.43133539 -112.58206139 69.45414815 -110.9140625 69.47460938 C-106.83114748 69.52965438 -102.74994826 69.61590943 -98.66796875 69.71875 C-98.67594482 68.8009375 -98.6839209 67.883125 -98.69213867 66.9375 C-98.8084909 43.92091448 -94.58118766 24.4680769 -78.296875 7.13671875 C-56.89197815 -12.55069752 -24.59961845 -15.99179176 0 0 Z"/>
<path data-index="2" transform="translate(589.66796875,189.28125)" fill="#F07720" d="M0 0 C16.1550624 11.90657865 26.37405344 27.10544996 29.90234375 46.921875 C30.42317884 51.52416323 30.44026452 56.03015372 30.39453125 60.65625 C30.39001953 61.53087891 30.38550781 62.40550781 30.38085938 63.30664062 C30.36917959 65.44404047 30.35124814 67.58140463 30.33203125 69.71875 C31.37657471 69.70303955 32.42111816 69.6873291 33.49731445 69.67114258 C37.37174777 69.61685303 41.24614744 69.5824037 45.12084961 69.55395508 C46.79799045 69.53886616 48.47509182 69.51839252 50.15209961 69.49243164 C52.56243629 69.45605189 54.97225144 69.43902514 57.3828125 69.42578125 C58.13291092 69.41029739 58.88300934 69.39481354 59.65583801 69.37886047 C64.79762943 69.37719724 64.79762943 69.37719724 67.26489258 70.95410156 C68.56149129 73.09819113 68.97014569 74.76493556 69.35546875 77.24609375 C69.51112305 78.22562012 69.66677734 79.20514648 69.82714844 80.21435547 C69.99375977 81.37080566 70.16037109 82.52725586 70.33203125 83.71875 C70.43132935 84.38948547 70.53062744 85.06022095 70.63293457 85.75128174 C71.32544366 90.43262738 71.98193092 95.11819901 72.61914062 99.80737305 C72.95696213 102.28074393 73.30455608 104.75262278 73.65234375 107.22460938 C73.87169592 108.82804274 74.09046564 110.43155591 74.30859375 112.03515625 C74.46323593 113.11997032 74.46323593 113.11997032 74.6210022 114.22669983 C75.37030152 119.86360795 75.33203125 124.90058264 75.33203125 130.71875 C3.06203125 130.71875 -69.20796875 130.71875 -143.66796875 130.71875 C-142.50680847 110.97902518 -142.50680847 110.97902518 -141.6171875 103.703125 C-141.51710892 102.87339172 -141.41703033 102.04365845 -141.31391907 101.18878174 C-141.10435857 99.47492284 -140.8917567 97.76143293 -140.67602539 96.04833984 C-140.35078091 93.43102593 -140.04951191 90.81155278 -139.74804688 88.19140625 C-139.53921869 86.507631 -139.32898565 84.82402925 -139.1171875 83.140625 C-139.0316008 82.36668396 -138.9460141 81.59274292 -138.85783386 80.79534912 C-138.22471634 76.03873149 -137.41863439 72.83475185 -133.66796875 69.71875 C-130.77951734 69.27163618 -128.49519808 69.13090281 -125.62109375 69.23046875 C-124.84989197 69.23754349 -124.07869019 69.24461823 -123.28411865 69.25190735 C-120.82773663 69.27983422 -118.37365824 69.34256261 -115.91796875 69.40625 C-114.25003299 69.43133539 -112.58206139 69.45414815 -110.9140625 69.47460938 C-106.83114748 69.52965438 -102.74994826 69.61590943 -98.66796875 69.71875 C-98.67594482 68.8009375 -98.6839209 67.883125 -98.69213867 66.9375 C-98.8084909 43.92091448 -94.58118766 24.4680769 -78.296875 7.13671875 C-56.89197815 -12.55069752 -24.59961845 -15.99179176 0 0 Z"/>
<path data-index="3" transform="translate(360,729)" fill="#182E4A" d="M0 0 C9.62072369 6.72704866 15.93022887 16.40928166 18 28 C19.2067674 40.33584453 16.61430613 52.09806242 9 62 C2.09899813 69.79101203 -6.15798876 74.67837575 -16.640625 75.44140625 C-28.97228709 75.92702934 -38.20102507 74.07618632 -47.89453125 66.046875 C-57.0865165 57.11069639 -60.77310022 46.46099485 -61.3125 33.875 C-61.15466665 22.24268242 -56.15584129 12.06274728 -47.93359375 3.96484375 C-34.71176904 -7.1755488 -14.88495678 -9.14456986 0 0 Z"/>
<path data-index="4" transform="translate(469.2421875,577.28515625)" fill="#182F4C" d="M0 0 C2.07640589 1.45025236 3.90442949 2.98914683 5.7578125 4.71484375 C6.79228516 5.67003906 6.79228516 5.67003906 7.84765625 6.64453125 C15.37585 14.29889585 18.97808267 23.17936685 19.2578125 33.90234375 C18.74223352 46.15412835 14.45442944 56.59957648 5.4453125 65.08984375 C-4.55106398 73.44830044 -15.40888883 74.55188652 -28.015625 73.92822266 C-37.96613984 72.97463165 -45.77991878 66.97052268 -52.2421875 59.71484375 C-60.21438897 48.88125046 -61.43687754 37.78004739 -60.2421875 24.71484375 C-58.16344873 14.90618415 -51.45881136 6.66885073 -43.359375 0.99609375 C-29.79176612 -7.21456255 -13.99850931 -8.02353582 0 0 Z"/>
<path data-index="5" transform="translate(636.24609375,577.28515625)" fill="#182F4C" d="M0 0 C8.83288771 6.18129959 15.72363663 14.48327442 18.328125 25.04296875 C20.26344622 37.18755331 18.97964996 48.28770407 11.76953125 58.53515625 C4.98854964 66.59057767 -3.60206396 72.80388042 -14.33105469 73.93457031 C-27.33462562 74.62631146 -36.93006526 73.15096965 -47.2109375 64.62890625 C-56.16601158 56.20666767 -60.07136539 46.2076846 -60.55859375 34.08984375 C-60.40974761 22.07796009 -55.70900257 13.53593788 -47.625 5.00390625 C-34.65223998 -7.25332984 -15.26527267 -8.7343908 0 0 Z"/>
<path data-index="6" transform="translate(583,206)" fill="#FAFAF9" d="M0 0 C10.61277584 8.56275971 15.07646562 17.84409527 18 31 C18 38.26 18 45.52 18 53 C-12.03 53 -42.06 53 -73 53 C-73 19.50766284 -73 19.50766284 -62 6 C-44.65361967 -11.316779 -20.425171 -13.47332998 0 0 Z"/>
<path style="opacity: 1;" data-index="7" transform="translate(357,348)" fill="#FAFAFA" d="M0 0 C27.72 0 55.44 0 84 0 C85.32 7.693125 86.64 15.38625 88 23.3125 C88.41765625 25.73891846 88.8353125 28.16533691 89.265625 30.6652832 C89.59394718 32.58541551 89.92208486 34.50557939 90.25 36.42578125 C90.42273438 37.4252478 90.59546875 38.42471436 90.7734375 39.45446777 C90.93585938 40.40833374 91.09828125 41.36219971 91.265625 42.3449707 C91.47880371 43.58740288 91.47880371 43.58740288 91.69628906 44.85493469 C92 47 92 47 92 50 C65.93 50 39.86 50 13 50 C10.855 42.12125 8.71 34.2425 6.5 26.125 C5.48196289 22.39340576 5.48196289 22.39340576 4.44335938 18.58642578 C3.90995608 16.62277572 3.37673999 14.65907479 2.84375 12.6953125 C2.56305664 11.66913818 2.28236328 10.64296387 1.99316406 9.58569336 C1.59726074 8.12425903 1.59726074 8.12425903 1.19335938 6.63330078 C0.96241577 5.78502716 0.73147217 4.93675354 0.49353027 4.06277466 C0 2 0 2 0 0 Z"/>
<path data-index="8" transform="translate(393,725)" fill="#162C48" d="M0 0 C5.61 0 11.22 0 17 0 C18.09054687 2.10761719 18.09054687 2.10761719 19.203125 4.2578125 C26.29872732 17.93386024 33.56792161 31.50396697 41 45 C48.11666387 32.57952002 55.10154747 20.11601225 61.65942383 7.38989258 C62.08634521 6.56255615 62.5132666 5.73521973 62.953125 4.8828125 C63.32598633 4.15465332 63.69884766 3.42649414 64.08300781 2.67626953 C65 1 65 1 66 0 C71.61 0 77.22 0 83 0 C83 25.74 83 51.48 83 78 C77.72 78 72.44 78 67 78 C66.67 62.49 66.34 46.98 66 31 C64.185 34.50625 62.37 38.0125 60.5 41.625 C55.86653441 50.54031806 51.10100545 59.34329369 46 68 C42.7 68 39.4 68 36 68 C35.46427368 66.96613159 35.46427368 66.96613159 34.91772461 65.91137695 C33.25870251 62.7112043 31.59810668 59.51185066 29.9375 56.3125 C29.37611328 55.22904297 28.81472656 54.14558594 28.23632812 53.02929688 C27.67236328 51.94326172 27.10839844 50.85722656 26.52734375 49.73828125 C26.01937256 48.75899658 25.51140137 47.77971191 24.98803711 46.77075195 C22.03005525 41.16028532 19.0069664 35.58436617 16 30 C15.67 45.84 15.34 61.68 15 78 C10.05 78 5.1 78 0 78 C0 52.26 0 26.52 0 0 Z"/>
<path data-index="9" transform="translate(495,725)" fill="#162C48" d="M0 0 C16 0 16 0 19.29296875 2.875 C20.30273438 4.82739258 20.30273438 4.82739258 21.1875 7 C21.95138503 8.54578939 22.7157364 10.09134837 23.48046875 11.63671875 C23.87282715 12.48669434 24.26518555 13.33666992 24.66943359 14.21240234 C26.68263736 18.43015658 28.96286484 22.49299919 31.2199707 26.58398438 C32.93699299 29.69822147 34.63065611 32.82367683 36.3125 35.95703125 C36.78300781 36.83335205 37.25351562 37.70967285 37.73828125 38.61254883 C38.8561713 40.72784426 39.94066317 42.85490508 41 45 C46.69759741 35.17348688 52.13342537 25.23117667 57.4375 15.1875 C58.5135242 13.15131631 59.59023058 11.11550904 60.66920471 9.08088684 C61.62950405 7.26997022 62.5871699 5.45765782 63.54467773 3.64526367 C65 1 65 1 66 0 C71.61 0 77.22 0 83 0 C83 25.74 83 51.48 83 78 C77.72 78 72.44 78 67 78 C66.67 62.49 66.34 46.98 66 31 C60.16448929 42.05338723 60.16448929 42.05338723 54.33251953 53.10864258 C53.59941199 54.4956732 52.86618445 55.88264041 52.1328125 57.26953125 C51.75439209 57.98830444 51.37597168 58.70707764 50.98608398 59.44763184 C49.42718559 62.39261891 47.85001109 65.22498336 46 68 C43.6171875 68.29296875 43.6171875 68.29296875 40.875 68.1875 C39.96492187 68.16042969 39.05484375 68.13335938 38.1171875 68.10546875 C37.41851563 68.07066406 36.71984375 68.03585937 36 68 C35.60731934 67.23969482 35.21463867 66.47938965 34.81005859 65.69604492 C33.32374209 62.81971893 31.83630016 59.94397835 30.34814453 57.06860352 C29.70968666 55.83445451 29.0716514 54.60008676 28.43408203 53.36547852 C27.50670291 51.56986808 26.57770058 49.77510479 25.6484375 47.98046875 C25.09333496 46.90692139 24.53823242 45.83337402 23.96630859 44.72729492 C21.36210844 39.79082562 18.67260358 34.89977323 16 30 C15.67 45.84 15.34 61.68 15 78 C10.05 78 5.1 78 0 78 C0 52.26 0 26.52 0 0 Z"/>
<path data-index="10" transform="translate(465,348)" fill="#FAFAFA" d="M0 0 C25.74 0 51.48 0 78 0 C78 16.5 78 33 78 50 C54.9 50 31.8 50 8 50 C6.02 39.11 4.04 28.22 2 17 C1.34 13.7 0.68 10.4 0 7 C0 4.69 0 2.38 0 0 Z"/>
<path data-index="11" transform="translate(567,348)" fill="#FAFAFA" d="M0 0 C25.74 0 51.48 0 78 0 C75.0230709 16.67080295 72.02933803 33.33864085 69 50 C46.23 50 23.46 50 0 50 C0 33.5 0 17 0 0 Z"/>
<path data-index="12" transform="translate(662,725)" fill="#162C48" d="M0 0 C42.89440994 0 42.89440994 0 51.26953125 8.07421875 C57.09609656 14.55840994 57.70363947 20.64682762 57.4453125 29.30078125 C56.46609748 37.4351376 52.86626223 42.96987377 46.55078125 48.0390625 C45 49 45 49 43 49 C46.51007136 55.51098088 50.31741788 61.77679796 54.3125 68 C55.39395201 69.68620302 56.47349326 71.37363361 57.55078125 73.0625 C58.02169189 73.79597656 58.49260254 74.52945313 58.9777832 75.28515625 C60 77 60 77 60 78 C54.00505006 79.13904049 47.85076457 80.21233958 42 78 C36.97878546 73.47979356 34.0147326 67.1802263 31.08251953 61.18603516 C29.95253162 58.8251134 29.95253162 58.8251134 28.18359375 56.01171875 C27 54 27 54 27 52 C23.37 52 19.74 52 16 52 C16 60.58 16 69.16 16 78 C10.72 78 5.44 78 0 78 C0 52.26 0 26.52 0 0 Z"/>
<path style="opacity: 1;" data-index="13" transform="translate(377,422)" fill="#F8F9F9" d="M0 0 C25.41 0 50.82 0 77 0 C78.155 7.1775 79.31 14.355 80.5 21.75 C80.86544922 24.01069336 81.23089844 26.27138672 81.60742188 28.60058594 C81.89477832 30.39514275 82.18190344 32.18973662 82.46875 33.984375 C82.61989258 34.9139502 82.77103516 35.84352539 82.92675781 36.80126953 C83.13993652 38.1405249 83.13993652 38.1405249 83.35742188 39.50683594 C83.48177612 40.27960876 83.60613037 41.05238159 83.73425293 41.84857178 C84 44 84 44 84 48 C60.57 48 37.14 48 13 48 C11.01316613 42.0394984 9.14588037 36.15167184 7.51953125 30.09765625 C7.30181564 29.29388046 7.08410004 28.49010468 6.85978699 27.66197205 C6.40563684 25.98259853 5.9527928 24.3028713 5.5012207 22.62280273 C4.80744032 20.04369078 4.10808282 17.46613457 3.40820312 14.88867188 C2.96581455 13.2500894 2.52374551 11.61142062 2.08203125 9.97265625 C1.76804131 8.81649559 1.76804131 8.81649559 1.44770813 7.63697815 C0 2.23010184 0 2.23010184 0 0 Z"/>
<path data-index="14" transform="translate(477,422)" fill="#F9F9F9" d="M0 0 C21.78 0 43.56 0 66 0 C66 15.84 66 31.68 66 48 C46.86 48 27.72 48 8 48 C6.68 40.45125 5.36 32.9025 4 25.125 C3.58234375 22.74168457 3.1646875 20.35836914 2.734375 17.90283203 C2.40611604 16.02118222 2.07798237 14.13951054 1.75 12.2578125 C1.49089844 10.78332642 1.49089844 10.78332642 1.2265625 9.27905273 C1.06414062 8.34536865 0.90171875 7.41168457 0.734375 6.44970703 C0.59225586 5.6369632 0.45013672 4.82421936 0.30371094 3.98684692 C0 2 0 2 0 0 Z"/>
<path data-index="15" transform="translate(567,422)" fill="#F9F9F9" d="M0 0 C21.12 0 42.24 0 64 0 C63.34447393 6.55526071 62.59317502 12.8506327 61.37109375 19.2890625 C61.23449341 20.02600342 61.09789307 20.76294434 60.95715332 21.5222168 C60.45511724 24.22398741 59.94591304 26.92442213 59.4375 29.625 C58.303125 35.68875 57.16875 41.7525 56 48 C37.52 48 19.04 48 0 48 C0 32.16 0 16.32 0 0 Z"/>
<path data-index="16" transform="translate(817,725)" fill="#182E4A" d="M0 0 C15.84 0 31.68 0 48 0 C48 4.95 48 9.9 48 15 C37.77 15 27.54 15 17 15 C17 20.28 17 25.56 17 31 C30.86 31.495 30.86 31.495 45 32 C45 36.62 45 41.24 45 46 C35.43 46 25.86 46 16 46 C16 51.94 16 57.88 16 64 C26.89 64 37.78 64 49 64 C49 68.62 49 73.24 49 78 C32.83 78 16.66 78 0 78 C0 52.26 0 26.52 0 0 Z"/>
<path data-index="17" transform="translate(596,725)" fill="#192F4B" d="M0 0 C15.84 0 31.68 0 48 0 C48 4.95 48 9.9 48 15 C37.44 15 26.88 15 16 15 C16 20.61 16 26.22 16 32 C25.9 32 35.8 32 46 32 C46 36.62 46 41.24 46 46 C36.1 46 26.2 46 16 46 C16 51.94 16 57.88 16 64 C26.89 64 37.78 64 49 64 C49 68.62 49 73.24 49 78 C32.83 78 16.66 78 0 78 C0 52.26 0 26.52 0 0 Z"/>
<path data-index="18" transform="translate(160,725)" fill="#162C48" d="M0 0 C15.51 0 31.02 0 47 0 C47 4.95 47 9.9 47 15 C36.77 15 26.54 15 16 15 C16 20.61 16 26.22 16 32 C25.57 32 35.14 32 45 32 C45 36.62 45 41.24 45 46 C35.43 46 25.86 46 16 46 C16 51.94 16 57.88 16 64 C26.56 64 37.12 64 48 64 C48 68.62 48 73.24 48 78 C32.16 78 16.32 78 0 78 C0 52.26 0 26.52 0 0 Z"/>
<path data-index="19" transform="translate(790,728)" fill="#172D49" d="M0 0 C5.61306083 4.1555257 9.37737367 7.44343417 12 14 C7.71 15.98 3.42 17.96 -1 20 C-2.051875 19.05125 -3.10375 18.1025 -4.1875 17.125 C-9.43161612 12.6957067 -13.52825513 11.51819991 -20.375 11.69140625 C-27.41333275 12.5188293 -32.33591519 15.64602909 -36.80859375 21.0234375 C-41.26338071 28.4140021 -41.22276955 37.74070141 -39.3125 45.95703125 C-36.99433114 52.39960889 -34.00676727 55.50020272 -28.234375 59.1015625 C-22.68637942 61.33239988 -15.14300977 60.94533937 -9.48046875 59.2421875 C-5.46448758 57.29178747 -2.55237671 54.84190137 1 52 C6.445 55.465 6.445 55.465 12 59 C8.89927584 66.75181041 2.60113734 71.19873324 -5 74.5 C-13.7255238 77.28421272 -25.53391977 77.92478662 -34.125 74.375 C-36.12109375 73.26171875 -36.12109375 73.26171875 -38 72 C-38.69222656 71.55269531 -39.38445313 71.10539063 -40.09765625 70.64453125 C-49.55627068 64.05002063 -54.82673208 55.76184599 -57.6171875 44.51171875 C-59.53418814 31.93384721 -57.17806789 20.38873678 -49.69140625 10.03125 C-37.86911857 -4.1664165 -16.58451164 -9.44814602 0 0 Z"/>
<path data-index="20" transform="translate(279.53125,729.578125)" fill="#172D49" d="M0 0 C4.92776102 3.55182774 7.89206429 6.93241415 10.46875 12.421875 C6.17875 14.401875 1.88875 16.381875 -2.53125 18.421875 C-3.35625 17.65875 -4.18125 16.895625 -5.03125 16.109375 C-10.4513028 11.64132211 -16.28001458 9.83641265 -23.2890625 10.0546875 C-26.48609223 10.57824289 -29.01272857 11.84642751 -31.8046875 13.44921875 C-33.53125 14.421875 -33.53125 14.421875 -36.53125 15.421875 C-37.6682528 17.1936147 -37.6682528 17.1936147 -38.53125 19.421875 C-38.88445312 20.25203125 -39.23765625 21.0821875 -39.6015625 21.9375 C-43.25880287 31.41923429 -43.665159 38.91543258 -39.53125 48.421875 C-36.37503848 53.39360642 -33.01203401 56.15807291 -27.53125 58.421875 C-21.5426999 59.18505418 -14.84845299 59.65859378 -9.40625 56.671875 C-6.90579759 54.7149992 -4.64501287 52.78928942 -2.53125 50.421875 C2.24484498 52.06365765 6.26257904 54.68734202 10.46875 57.421875 C6.70172573 65.69846197 -0.32516802 70.09545651 -8.53125 73.421875 C-17.37621913 75.95892765 -29.94722453 75.96344954 -38.296875 71.875 C-47.60932434 65.81865183 -55.89122046 57.13547057 -59.0546875 46.25390625 C-61.01601917 34.59845166 -60.56267624 22.83343213 -54.53125 12.421875 C-41.41572406 -5.42504628 -19.79062159 -12.33859741 0 0 Z"/>
<path data-index="21" transform="translate(669,348)" fill="#F9F9FA" d="M0 0 C14.19 0 28.38 0 43 0 C41.31149343 6.79986807 39.62158391 13.59935401 37.92797852 20.39794922 C37.35193654 22.71219176 36.77673837 25.02664451 36.20239258 27.34130859 C35.37801861 30.66298798 34.55064051 33.98390646 33.72265625 37.3046875 C33.46533218 38.34430634 33.20800812 39.38392517 32.94288635 40.45504761 C32.70271286 41.41589264 32.46253937 42.37673767 32.21508789 43.36669922 C31.89865074 44.63910965 31.89865074 44.63910965 31.57582092 45.93722534 C31 48 31 48 30 50 C17.13 50 4.26 50 -9 50 C-7.11142435 38.03902087 -5.15975386 26.17840069 -2.8125 14.3125 C-1.884375 9.589375 -0.95625 4.86625 0 0 Z"/>
<path data-index="22" transform="translate(351,742)" fill="#F9F9FA" d="M0 0 C4.69844972 3.64388786 8.8590867 8.00763556 10 14 C10.79916263 24.07395149 10.52317065 31.76557504 4.8125 40.25 C-0.52227069 45.46622023 -4.9998591 47.24131341 -12.5 47.5625 C-20.39810888 47.29740144 -24.36672009 44.63327991 -29.8125 39.1875 C-35.09103461 31.49592099 -36.16073533 24.20850027 -35 15 C-32.86805882 8.09251058 -29.09450948 2.89939533 -23 -1 C-15.69092908 -4.49564262 -7.00444767 -4.03718674 0 0 Z"/>
<path data-index="23" transform="translate(655,422)" fill="#F8F9F9" d="M0 0 C12.54 0 25.08 0 38 0 C35.35858303 11.22602213 32.65589106 22.40626102 29.75 33.5625 C28.5125 38.326875 27.275 43.09125 26 48 C14.78 48 3.56 48 -8 48 C-7.36795373 42.31158357 -6.69614937 36.94681033 -5.625 31.3671875 C-5.49561035 30.68625031 -5.3662207 30.00531311 -5.23291016 29.30374146 C-4.82516062 27.16019749 -4.41290608 25.01755608 -4 22.875 C-3.5877468 20.72518668 -3.17652203 18.57518762 -2.76708984 16.42483521 C-2.3963565 14.47926423 -2.02249248 12.53429056 -1.6484375 10.58935547 C-1.01336171 7.07396227 -0.50519918 3.53639426 0 0 Z"/>
<path data-index="24" transform="translate(455.07421875,596.6484375)" fill="#F8F8F9" d="M0 0 C4.61430601 2.3421857 7.32398814 5.52722704 8.92578125 10.3515625 C9.72091 14.98298252 9.44913247 18.94860023 7.30078125 23.1640625 C4.63689545 26.73927766 2.99540105 28.50173532 -1.07421875 30.3515625 C-6.37608335 31.11800194 -10.63670433 31.03111477 -15.51171875 28.7265625 C-20.00430672 24.56270047 -22.7435955 20.58573723 -23.23828125 14.4375 C-22.82796842 9.22066544 -20.19302738 5.39045622 -16.44921875 1.9140625 C-11.39527121 -1.41090298 -5.83155972 -1.8230488 0 0 Z"/>
<path data-index="25" transform="translate(620,596)" fill="#F8F8F9" d="M0 0 C5.66456626 2.03069357 8.39266994 5.16803752 11.3125 10.3125 C12.64883115 15.53633994 11.72673169 19.6003686 9.3125 24.25 C6.07599543 28.09881625 3.52865477 30.59128994 -1.5859375 31.41796875 C-7.22153525 31.70360864 -11.27616133 31.21345143 -15.62890625 27.4765625 C-19.63015094 23.16752976 -20.56261239 18.88372141 -20.3515625 13.17578125 C-19.59131311 8.47068227 -16.82928207 5.73055802 -13.375 2.6875 C-8.92736762 -0.47265985 -5.35030382 -0.49623391 0 0 Z"/>
<path data-index="26" transform="translate(678,739)" fill="#FAFAFA" d="M0 0 C2.51625 -0.061875 5.0325 -0.12375 7.625 -0.1875 C8.79603271 -0.22846802 8.79603271 -0.22846802 9.99072266 -0.27026367 C14.72198885 -0.3261164 17.93033526 0.34457359 22 3 C24.78169 5.84062411 25.45084604 7.93039436 25.5 11.875 C25.39804712 15.50774201 24.97398424 17.70957556 22.6875 20.5625 C19.41672367 23.52901807 17.25167401 24.12971183 12.98828125 24.09765625 C11.96408081 24.09390991 11.96408081 24.09390991 10.91918945 24.09008789 C10.05898193 24.08098389 9.19877441 24.07187988 8.3125 24.0625 C4.1978125 24.0315625 4.1978125 24.0315625 0 24 C0 16.08 0 8.16 0 0 Z"/>
<path data-index="27" transform="translate(640,757)" fill="#13203B" d="M0 0 C0.66 0 1.32 0 2 0 C2 4.62 2 9.24 2 14 C-7.9 14 -17.8 14 -28 14 C-28 19.94 -28 25.88 -28 32 C-28.33 32 -28.66 32 -29 32 C-29.02888514 28.85418577 -29.04675923 25.70840531 -29.0625 22.5625 C-29.07087891 21.66466797 -29.07925781 20.76683594 -29.08789062 19.84179688 C-29.09111328 18.98779297 -29.09433594 18.13378906 -29.09765625 17.25390625 C-29.10551147 16.06776733 -29.10551147 16.06776733 -29.11352539 14.85766602 C-29 13 -29 13 -28 12 C-25.92737924 11.91232888 -23.85179706 11.89304127 -21.77734375 11.90234375 C-20.51728516 11.90556641 -19.25722656 11.90878906 -17.95898438 11.91210938 C-16.61848891 11.92046597 -15.27799412 11.92893093 -13.9375 11.9375 C-12.59310058 11.9425134 -11.2486994 11.94707658 -9.90429688 11.95117188 C-6.60282059 11.96300512 -3.30143197 11.97949029 0 12 C0 8.04 0 4.08 0 0 Z"/>
<path data-index="28" transform="translate(203,757)" fill="#263953" d="M0 0 C0.66 0 1.32 0 2 0 C2 4.62 2 9.24 2 14 C1.34 14 0.68 14 0 14 C-1 12 -1 12 -1 3 C-9.58 3 -18.16 3 -27 3 C-27 2.67 -27 2.34 -27 2 C-18.09 2 -9.18 2 0 2 C0 1.34 0 0.68 0 0 Z"/>
<path data-index="29" transform="translate(833,771)" fill="#CFD5DA" d="M0 0 C0.99 0.33 1.98 0.66 3 1 C2.67 5.95 2.34 10.9 2 16 C2.66 16.33 3.32 16.66 4 17 C2.68 17.33 1.36 17.66 0 18 C0 12.06 0 6.12 0 0 Z"/>
<path data-index="30" transform="translate(441,572)" fill="#243A57" d="M0 0 C4.62 0 9.24 0 14 0 C14.33 0.99 14.66 1.98 15 3 C9.72 3 4.44 3 -1 3 C-0.67 2.01 -0.34 1.02 0 0 Z"/>
<path data-index="31" transform="translate(584,588)" fill="#0E1932" d="M0 0 C0 3.19490342 -0.59110506 4.59617544 -1.9375 7.4375 C-2.99041613 9.66787072 -3.9273223 11.69745796 -4.50390625 14.09765625 C-5 16 -5 16 -7 19 C-6.6646931 11.75737096 -5.27686552 5.27686552 0 0 Z"/>
<path data-index="32" transform="translate(409,756)" fill="#F2F4F5" d="M0 0 C2.83328987 2.83328987 3.7191375 4.35446828 5 8 C4.01 8 3.02 8 2 8 C1.67 8.99 1.34 9.98 1 11 C0.67 7.37 0.34 3.74 0 0 Z"/>
<path data-index="33" transform="translate(712,767)" fill="#101E38" d="M0 0 C0 0.99 0 1.98 0 3 C-2.3125 5.25 -2.3125 5.25 -5 7 C-5.99 6.67 -6.98 6.34 -8 6 C-7.34 5.67 -6.68 5.34 -6 5 C-6 4.01 -6 3.02 -6 2 C-4.7934375 1.7834375 -4.7934375 1.7834375 -3.5625 1.5625 C-1.07896294 1.25864751 -1.07896294 1.25864751 0 0 Z"/>
<path data-index="34" transform="translate(321,727)" fill="#111D36" d="M0 0 C0.99 0.33 1.98 0.66 3 1 C0.3401439 4.44216672 -2.90288286 4.99504674 -7 6 C-2.25 1.125 -2.25 1.125 0 0 Z"/>
<path data-index="35" transform="translate(591,642)" fill="#121F38" d="M0 0 C1.4835001 0.42257276 2.96176424 0.86356322 4.4375 1.3125 C5.67306641 1.67794922 5.67306641 1.67794922 6.93359375 2.05078125 C7.61550781 2.36402344 8.29742188 2.67726563 9 3 C9.33 3.99 9.66 4.98 10 6 C5.16743695 5.58578031 3.17320782 3.53586014 0 0 Z"/>
<path data-index="36" transform="translate(708,772)" fill="#EDF0F1" d="M0 0 C0.66 0.33 1.32 0.66 2 1 C1.649375 1.598125 1.29875 2.19625 0.9375 2.8125 C-0.33304698 5.10813214 -0.33304698 5.10813214 1 8 C0.34 8 -0.32 8 -1 8 C-3 5 -3 5 -3 2 C-2.01 1.34 -1.02 0.68 0 0 Z"/>
<path data-index="37" transform="translate(325,743)" fill="#ECEFF1" d="M0 0 C0.66 0.33 1.32 0.66 2 1 C-0.31 3.64 -2.62 6.28 -5 9 C-5.33 8.34 -5.66 7.68 -6 7 C-4.02 4.69 -2.04 2.38 0 0 Z"/>
<path data-index="38" transform="translate(235,731)" fill="#08132B" d="M0 0 C0 3 0 3 -2.5 5.6875 C-3.325 6.450625 -4.15 7.21375 -5 8 C-5.66 7.67 -6.32 7.34 -7 7 C-4.69 4.69 -2.38 2.38 0 0 Z"/>
</svg>